HIERARCHY
ROOT Hips
{
	OFFSET 0.0000 0.0000 0.0000
	CHANNELS 6 Xposition Yposition Zposition Zrotation Xrotation Yrotation
	JOINT Ab
	{
		OFFSET -0.0000 8.0846 -0.0000
		CHANNELS 3 Zrotation Xrotation Yrotation
		JOINT Chest
		{
			OFFSET -0.0000 25.0068 -0.0000
			CHANNELS 3 Zrotation Xrotation Yrotation
			JOINT Neck
			{
				OFFSET -0.0000 25.0068 0.0000
				CHANNELS 3 Zrotation Xrotation Yrotation
				JOINT Head
				{
					OFFSET -0.0000 10.7556 0.0000
					CHANNELS 3 Zrotation Xrotation Yrotation
					End Site
					{
						OFFSET -0.0000 16.6222 0.0000
					}
				}
			}
			JOINT LeftCollar
			{
				OFFSET -0.0000 25.0068 0.0000
				CHANNELS 3 Zrotation Xrotation Yrotation
				JOINT LeftShoulder
				{
					OFFSET 19.5556 -0.0000 0.0000
					CHANNELS 3 Zrotation Xrotation Yrotation
					JOINT LeftElbow
					{
						OFFSET 27.1828 0.0000 0.0000
						CHANNELS 3 Zrotation Xrotation Yrotation
						JOINT LeftWrist
						{
							OFFSET 23.3157 0.0000 0.0000
							CHANNELS 3 Zrotation Xrotation Yrotation
							End Site
							{
								OFFSET 0.0000 -14.6667 0.0000
							}
						}
					}
				}
			}
			JOINT RightCollar
			{
				OFFSET -0.0000 25.0068 0.0000
				CHANNELS 3 Zrotation Xrotation Yrotation
				JOINT RightShoulder
				{
					OFFSET -19.5556 0.0000 0.0000
					CHANNELS 3 Zrotation Xrotation Yrotation
					JOINT RightElbow
					{
						OFFSET -27.1828 0.0000 0.0000
						CHANNELS 3 Zrotation Xrotation Yrotation
						JOINT RightWrist
						{
							OFFSET -23.3157 0.0000 0.0000
							CHANNELS 3 Zrotation Xrotation Yrotation
							End Site
							{
								OFFSET -0.0000 -14.6667 0.0000
							}
						}
					}
				}
			}
		}
	}
	JOINT LeftHip
	{
		OFFSET 11.7333 0.0000 0.0000
		CHANNELS 3 Zrotation Xrotation Yrotation
		JOINT LeftKnee
		{
			OFFSET -0.0000 -40.8688 0.0000
			CHANNELS 3 Zrotation Xrotation Yrotation
			JOINT LeftAnkle
			{
				OFFSET -0.0000 -44.4337 0.0000
				CHANNELS 3 Zrotation Xrotation Yrotation
				End Site
				{
					OFFSET -0.0000 -4.8889 16.6222
				}
			}
		}
	}
	JOINT RightHip
	{
		OFFSET -11.7333 0.0000 0.0000
		CHANNELS 3 Zrotation Xrotation Yrotation
		JOINT RightKnee
		{
			OFFSET -0.0000 -40.8688 0.0000
			CHANNELS 3 Zrotation Xrotation Yrotation
			JOINT RightAnkle
			{
				OFFSET -0.0000 -44.4337 0.0000
				CHANNELS 3 Zrotation Xrotation Yrotation
				End Site
				{
					OFFSET -0.0000 -4.8889 16.6222
				}
			}
		}
	}
}
MOTION
Frames: 19
Frame Time: 0.010000
-3.1183 88.8628 190.3216 2.4392 359.1681 176.3236 1.6577 358.5666 358.3979 358.2156 12.4416 358.5733 2.9097 345.4415 1.3378 1.7740 10.9741 0.7901 339.2233 358.5932 7.7015 301.0743 30.5148 353.7882 17.1039 354.2466 323.0304 82.0064 1.5199 342.0631 22.3973 359.3288 356.5461 58.3395 43.8041 10.7561 337.8948 354.2029 29.0463 279.3895 353.4498 19.7014 1.2500 357.2276 356.4890 358.8260 10.4311 359.2481 0.3150 352.9243 21.2321 1.6114 351.9532 358.6580 359.3450 17.5442 6.8794 357.6498 345.8013 338.6855 
-3.1662 88.8640 190.3238 2.4504 359.1184 176.3733 1.6423 358.5416 358.3904 358.2273 12.4408 358.5638 2.9398 345.5188 1.1932 1.5878 10.9432 0.6608 339.2121 358.5699 7.7268 301.1326 30.8589 353.7386 17.2733 354.1700 323.0647 81.9156 1.5217 342.2804 22.3736 359.3100 356.5049 58.3233 43.8106 10.7732 337.8205 354.1960 29.0956 279.4570 353.4221 19.6856 1.2357 357.1404 356.4598 358.8237 10.4826 359.2052 0.2758 352.9036 21.2286 1.5873 351.9094 358.6091 359.3415 17.5350 6.8632 357.6693 345.8005 338.7108 
-3.2204 88.8635 190.3145 2.4485 359.1152 176.3674 1.6170 358.5613 358.4106 358.2406 12.4377 358.5828 2.9321 345.5077 1.1534 1.5657 11.0207 0.6251 339.1850 358.5833 7.7837 301.1733 31.0351 353.6702 17.2660 354.1974 323.1407 82.0434 1.4704 342.4102 22.3501 359.3255 356.5336 58.3125 43.6931 10.7356 337.8801 354.1999 29.1170 279.4804 353.2724 19.5938 1.1956 357.1257 356.4793 358.8242 10.5156 359.2242 0.3993 352.9062 21.2200 1.5513 351.9154 358.6305 359.3392 17.5166 6.8384 357.5155 345.8173 338.6886 
-3.2714 88.8648 190.3058 2.4554 359.1109 176.3501 1.6218 358.5873 358.4187 358.2086 12.4247 358.5945 2.9474 345.5442 1.1176 1.5449 11.0150 0.5935 339.2080 358.6031 7.7063 301.0549 30.6492 353.7645 17.0625 354.2867 322.9607 81.9841 1.5821 342.0691 22.3645 359.3084 356.5147 58.2519 43.6648 10.7558 338.1171 354.2789 29.2143 279.0719 353.3300 20.5901 1.1753 357.1091 356.4861 358.8072 10.5542 359.2254 0.4525 352.8821 21.2314 1.5295 351.9208 358.7104 359.3530 17.5038 6.7681 357.7958 345.7677 338.7312 
-3.3288 88.8649 190.2917 2.4593 359.1222 176.3438 1.6008 358.6140 358.4290 358.2198 12.4437 358.6038 2.9557 345.5610 1.0592 1.4387 11.0302 0.5447 339.2284 358.5830 7.6703 300.9532 30.5216 353.8318 16.9974 354.2912 322.8516 81.9771 1.6091 341.9486 22.3294 359.2889 356.4915 58.2026 43.6802 10.8014 338.2214 354.2718 29.3125 278.9614 353.4793 21.0090 1.1410 357.1148 356.5690 358.8198 10.5800 359.1368 0.4617 352.8566 21.2388 1.5014 351.9533 358.7555 359.3529 17.4727 6.6876 357.8281 345.7886 338.8075 
-3.3881 88.8635 190.2729 2.4687 359.1501 176.3401 1.5862 358.6510 358.4349 358.2266 12.4548 358.6106 3.0082 345.6023 1.0380 1.2699 11.0116 0.5254 339.2183 358.6076 7.6642 300.9309 30.5375 353.8416 16.9163 354.3156 322.8450 81.9967 1.5968 341.9115 22.3142 359.3154 356.5045 58.1863 43.6166 10.7971 338.2783 354.2601 29.3481 279.0008 353.4704 21.0805 1.1156 357.1457 356.5801 358.8070 10.6039 359.0933 0.5201 352.8393 21.2756 1.4701 352.0031 358.8097 359.3668 17.4474 6.6492 357.6790 345.8192 338.7659 
-3.4576 88.8600 190.2603 2.4719 359.1496 176.3207 1.6060 358.6784 358.4371 358.1757 12.4316 358.6173 2.9700 345.6839 0.9611 1.2436 10.9933 0.4711 339.2310 358.5953 7.6525 300.8628 30.4605 353.9078 16.8951 354.2899 322.6497 81.9785 1.7789 342.0160 22.3107 359.3324 356.5371 58.1740 43.5737 10.7793 338.2599 354.2409 29.4099 279.0400 353.5013 21.1154 1.0797 357.1456 356.5603 358.7881 10.6173 359.1150 0.5348 352.8108 21.2928 1.4323 352.0037 358.8439 359.3629 17.4515 6.6271 357.6498 345.8225 338.7629 
-3.5236 88.8580 190.2378 2.4847 359.1716 176.3031 1.5923 358.7005 358.4540 358.1702 12.4538 358.6367 2.9417 345.7090 0.9133 1.2255 11.0183 0.4157 339.2384 358.6091 7.6247 300.7593 30.2455 353.9471 16.7325 354.3481 322.5845 82.0058 1.8037 341.8117 22.2893 359.3172 356.5556 58.1576 43.5901 10.7694 338.1800 354.2055 29.4677 279.1194 353.5276 21.0716 1.0527 357.1889 356.5582 358.7753 10.6102 359.0943 0.5110 352.7885 21.3215 1.4100 352.0387 358.8918 359.3560 17.4440 6.5784 357.9051 345.7816 338.8280 
-3.5954 88.8556 190.2190 2.4951 359.1777 176.2818 1.5698 358.7105 358.4847 358.1766 12.4692 358.6679 2.9359 345.7518 0.8648 1.1817 11.0231 0.3940 339.2191 358.5880 7.7415 300.8088 30.8146 353.7988 17.0298 354.1825 322.7745 81.8765 1.7294 342.1456 22.2560 359.3212 356.5466 58.1004 43.7083 10.8568 338.1371 354.2169 29.3179 279.0944 353.3104 20.8660 1.0222 357.2166 356.5619 358.7597 10.6001 359.0864 0.5876 352.8003 21.3373 1.3761 352.0577 358.9472 359.3584 17.4419 6.5401 357.9763 345.7711 338.8644 
-3.6742 88.8512 190.2006 2.5122 359.1780 176.2747 1.5889 358.7176 358.4945 358.1368 12.4868 358.6818 2.9688 345.7693 0.8389 1.1120 11.0591 0.3639 339.2097 358.5628 7.8279 300.8612 31.3026 353.6982 17.2648 354.0960 322.9291 81.8083 1.6578 342.4360 22.2606 359.3125 356.5251 58.0377 43.7150 10.8865 338.0902 354.1974 29.3501 279.1553 353.2788 20.8018 0.9899 357.2350 356.5414 358.7487 10.5948 359.0840 0.6687 352.7960 21.3715 1.3445 352.0726 358.9579 359.3535 17.4307 6.5929 357.9904 345.7840 338.8184 
-3.7523 88.8499 190.1927 2.5287 359.1550 176.2532 1.5840 358.7192 358.5051 358.1402 12.4833 358.6915 3.0123 345.8698 0.7847 0.8852 11.0273 0.3114 339.1942 358.5555 7.8634 300.8272 31.3363 353.6679 17.2398 354.1668 322.9415 81.8454 1.6746 342.4772 22.2523 359.3138 356.5400 57.9682 43.6741 10.9015 338.1180 354.1927 29.4259 279.0425 353.3305 20.7919 0.9588 357.2145 356.5188 358.7354 10.6108 359.0874 0.9137 352.8243 21.4516 1.3206 352.0404 358.9802 359.3405 17.4428 6.5946 358.0588 345.7657 338.8216 
-3.8352 88.8480 190.1829 2.5551 359.1343 176.2475 1.6050 358.7387 358.5056 358.1055 12.4379 358.6947 3.0684 346.0224 0.6815 0.6487 11.0018 0.2510 339.1896 358.5654 7.8618 300.7993 31.4004 353.6874 17.2196 354.1882 322.9532 81.8851 1.6706 342.5335 22.2694 359.3271 356.5463 57.8907 43.6229 10.9288 338.1710 354.1975 29.4858 279.0293 353.4829 20.7757 0.9292 357.1924 356.5232 358.7389 10.6244 359.0853 0.7882 352.7814 21.4314 1.2982 352.0207 358.9852 359.3417 17.4502 6.5042 357.9468 345.7829 338.8778 
-3.9211 88.8476 190.1748 2.5714 359.1089 176.2242 1.5926 358.7317 358.5149 358.1154 12.4505 358.7033 3.0439 346.1033 0.5971 0.5161 10.9922 0.2086 339.1852 358.5611 7.8525 300.7211 31.3431 353.7183 17.1227 354.2253 322.9003 82.1011 1.6291 342.5198 22.2521 359.3135 356.5605 57.8207 43.5668 10.9737 338.1729 354.1655 29.5677 279.0257 353.5952 20.7986 0.9082 357.1802 356.4472 358.6859 10.6135 359.1304 0.7745 352.7779 21.4722 1.2652 351.9890 359.0035 359.3412 17.4601 6.4523 358.0974 345.7728 338.9610 
-4.0090 88.8467 190.1531 2.5913 359.1397 176.1827 1.5935 358.7789 358.5273 358.0868 12.4445 358.7201 3.0316 346.1701 0.5849 0.4981 11.0237 0.1996 339.1952 358.5696 7.8218 300.6092 31.0846 353.7782 16.9124 354.3189 322.8034 82.2185 1.6511 342.3048 22.2522 359.3259 356.6004 57.7990 43.5267 10.9587 338.2149 354.1620 29.6415 278.7453 353.9072 20.8218 0.8773 357.2450 356.4002 358.6547 10.5890 359.1507 0.8513 352.7822 21.5369 1.2329 352.0287 359.0397 359.3344 17.4492 6.4659 358.2045 345.7628 338.9652 
-4.1023 88.8444 190.1357 2.6167 359.1525 176.1373 1.5869 358.8073 358.5517 358.0816 12.4577 358.7467 3.0328 346.1614 0.6203 0.4795 11.1291 0.1861 339.1745 358.5549 7.8619 300.5949 31.1941 353.7447 16.9043 354.2863 322.7671 82.1865 1.7011 342.2954 22.2311 359.3381 356.6060 57.7197 43.6413 11.0700 338.1299 354.1408 29.5401 278.6184 353.9877 20.6843 0.8401 357.2834 356.3943 358.6480 10.5715 359.1664 0.9201 352.7863 21.5713 1.2034 352.0416 359.0991 359.3360 17.4525 6.4578 358.2284 345.7701 338.9557 
-4.1999 88.8423 190.1225 2.6316 359.1392 176.0918 1.5706 358.8119 358.5780 358.0722 12.4735 358.7736 3.0904 346.2213 0.5771 0.2859 11.1498 0.1575 339.1597 358.5368 7.9282 300.6341 31.5363 353.6701 17.0230 354.2137 322.8313 82.1006 1.6749 342.4643 22.2250 359.3220 356.5832 57.6138 43.7097 11.1769 338.0403 354.1410 29.4972 278.6554 353.9122 20.5436 0.7885 357.2803 356.4130 358.6546 10.5815 359.1502 0.9758 352.7693 21.5968 1.1619 352.0286 359.1785 359.3448 17.4449 6.4006 358.2838 345.7817 338.9822 
-4.2999 88.8409 190.1083 2.6558 359.1300 176.0328 1.5716 358.8311 358.6026 358.0472 12.4677 358.8017 3.1133 346.3380 0.4987 0.1052 11.1238 0.1109 339.1603 358.5441 7.9401 300.6291 31.6629 353.6410 17.0061 354.2397 322.8813 82.1263 1.6382 342.5199 22.2264 359.3179 356.5723 57.5584 43.7109 11.2200 338.0072 354.1240 29.5152 278.6910 353.9135 20.4768 0.7447 357.2810 356.4391 358.6522 10.5935 359.1762 1.0460 352.7674 21.6102 1.1355 352.0158 359.2361 359.3295 17.4468 6.3689 358.3473 345.7706 339.0326 
-4.3998 88.8400 190.0964 2.6841 359.1255 175.9699 1.5620 358.8569 358.6255 358.0406 12.4713 358.8255 3.1332 346.3470 0.4694 359.9601 11.2498 0.1016 339.1677 358.5386 7.9364 300.5788 31.6575 353.6320 16.9492 354.2651 322.8500 82.1310 1.6528 342.4560 22.2184 359.3272 356.5617 57.4836 43.6957 11.3025 337.9887 354.0965 29.5481 278.7534 353.9972 20.4097 0.6994 357.2884 356.4956 358.6680 10.6023 359.1933 1.0773 352.7423 21.5926 1.1141 352.0069 359.3034 359.3143 17.4488 6.3346 358.4243 345.7614 339.0742 
-4.5051 88.8383 190.0916 2.7019 359.1037 175.9142 1.5516 358.8696 358.6366 358.0152 12.4790 358.8388 3.1560 346.3514 0.4652 359.8690 11.3550 0.1109 339.1799 358.5371 7.9791 300.5584 31.7954 353.5624 16.9644 354.2635 322.8807 82.0832 1.6605 342.4729 22.2072 359.3263 356.5778 57.4440 43.6930 11.3511 337.8863 354.0675 29.5265 279.1423 353.6294 20.2614 0.6420 357.2621 356.5498 358.6842 10.6343 359.1565 1.1287 352.7216 21.6191 1.0755 351.9740 359.3432 359.3030 17.4504 6.3231 358.4842 345.7658 339.1034 
